<svg width="27.000000" height="24.000000" viewBox="0 0 27 24" fill="none" xmlns="http://www.w3.org/2000/svg" xmlns:xlink="http://www.w3.org/1999/xlink">
	<desc>
			Created with Pixso.
	</desc>
	<defs/>
	<path id="Vector" d="M6 0L3 0L3 3L12 3L12 0L6 0ZM15 0L15 3L24 3L24 0L15 0ZM3 3L0 3L0 12L3 12L3 3ZM15 3L12 3L12 6L15 6L15 3ZM24 3L24 12L27 12L27 3L24 3ZM6 12L3 12L3 15L6 15L6 12ZM21 12L21 15L24 15L24 12L21 12ZM9 15L6 15L6 18L9 18L9 15ZM18 15L18 18L21 18L21 15L18 15ZM12 18L9 18L9 21L12 21L12 18ZM15 18L15 21L18 21L18 18L15 18ZM15 21L12 21L12 24L15 24L15 21Z" fill="#000000" fill-opacity="1.000000" fill-rule="evenodd"/>
</svg>
